<?xml version="1.0" encoding="utf-8"?><svg version="1.1" id="Layer_1" xmlns="http://www.w3.org/2000/svg" xmlns:xlink="http://www.w3.org/1999/xlink" x="0px" y="0px" viewBox="0 0 122.44 122.88" fill="#ffffff" style="enable-background:new 0 0 122.44 122.88" xml:space="preserve"><style type="text/css">.st0{fill-rule:evenodd;clip-rule:evenodd;}</style><g><path class="st0" d="M8.49,55.93c-5.21,22.63-9.1,44.85-8.41,66.95c7.27-1.05,17.17-7.9,26.59-19.15 c22.64,12.77,44.36,9.94,65.39-4.69c26.91-3.98,36.07-15.63,26.98-35.19L84.63,14.42c-1.77-2.54-0.94-1.49-3.85-4.02l-6.59-5.73 c-2.74-4.37-6.22-5.54-10.31-4.05l-9.29,3.04C48.62,6,46.9,9.21,49.35,13.28l2.83,4.56c1.51,3.8,3.87,5.55,7.67,3.8l0.56-0.18 c-0.09-0.25-0.12-0.53-0.05-0.81c0.2-0.86,0.4-1.67,0.58-2.4c0.51-2.08,0.83-3.38,0.72-3.65c-0.08-0.19-0.92,0.64-3.46,1.66 c-0.73,0.29-1.56-0.06-1.85-0.79c-0.29-0.73,0.06-1.56,0.79-1.85c4.43-1.78,6.35-2.1,7.17-0.08c0.45,1.13,0.05,2.76-0.6,5.39 c-0.12,0.48-0.25,1-0.38,1.58l0.38-0.13l-0.45,0.17c8.97-3.38,7.49,1.71,13.38,10.56c7.35,11.05,11.27,24.22,11.34,39.78 C74.35,59.4,58.75,59.8,41.92,67.66C33.54,57.94,22.24,54.37,8.49,55.93L8.49,55.93z"/></g></svg>