<?xml version="1.0" encoding="utf-8"?><svg version="1.1" id="Layer_1" xmlns="http://www.w3.org/2000/svg" xmlns:xlink="http://www.w3.org/1999/xlink" x="0px" y="0px" viewBox="0 0 122.88 122.88" fill="#ffffff" style="enable-background:new 0 0 122.88 122.88" xml:space="preserve"><style type="text/css">.st0{fill-rule:evenodd;clip-rule:evenodd;}</style><g><path class="st0" d="M61.44,0c33.93,0,61.44,27.51,61.44,61.44c0,33.93-27.51,61.44-61.44,61.44C27.51,122.88,0,95.37,0,61.44 C0,27.51,27.51,0,61.44,0L61.44,0z M104.43,61.18c-0.85,54.05-85.13,54.05-85.97,0C44.54,92.83,72.74,97.25,104.43,61.18 L104.43,61.18z M25.45,46.12c-0.44,1.5-2.01,2.36-3.51,1.92c-1.5-0.44-2.36-2.01-1.92-3.51c1.02-3.44,2.9-6.14,5.27-8.03 c2.4-1.92,5.27-2.99,8.25-3.16c2.95-0.17,5.99,0.55,8.77,2.21c2.96,1.77,5.6,4.62,7.43,8.6c0.65,1.42,0.02,3.1-1.4,3.75 c-1.42,0.65-3.1,0.02-3.75-1.4c-1.32-2.87-3.16-4.88-5.19-6.1c-1.77-1.06-3.7-1.52-5.55-1.41c-1.83,0.1-3.58,0.76-5.03,1.92 C27.32,42.09,26.12,43.84,25.45,46.12L25.45,46.12L25.45,46.12z M78.17,46.12c-0.44,1.5-2.01,2.36-3.51,1.92 c-1.5-0.44-2.36-2.01-1.92-3.51c1.02-3.44,2.9-6.14,5.27-8.03c2.35-1.88,5.24-2.99,8.25-3.16c2.95-0.17,6,0.55,8.77,2.21 c2.96,1.77,5.59,4.62,7.43,8.6c0.65,1.42,0.02,3.1-1.4,3.75c-1.42,0.65-3.1,0.02-3.75-1.4c-1.32-2.87-3.15-4.88-5.19-6.1 c-1.77-1.06-3.7-1.52-5.55-1.41c-1.83,0.1-3.58,0.76-5.03,1.92C80.04,42.1,78.84,43.84,78.17,46.12L78.17,46.12L78.17,46.12z"/></g></svg>